<?xml version="1.0" encoding="utf-8"?>
<!-- Generator: Adobe Illustrator 19.2.1, SVG Export Plug-In . SVG Version: 6.00 Build 0)  -->
<svg version="1.1" id="layer" xmlns="http://www.w3.org/2000/svg" xmlns:xlink="http://www.w3.org/1999/xlink" x="0px" y="0px"
	 viewBox="0 0 652 652" style="enable-background:new 0 0 652 652;" xml:space="preserve">
<style type="text/css">
	.st0{fill:#161615;}
	.st1{fill:#D9000D;}
	.st2{fill:#FFFFFF;}
	.st3{fill:#0064B3;}
</style>
<g transform="translate(0 39)">
	<g transform="translate(178.387 42.339)">
		<path class="st0" d="M279.3,292.4c0,3.7,3.2,5.9,8.3,5.9c6,0,9.2-2.1,9.2-5.7c0-1.8-0.9-4.2-5.1-4.8l-5.1-0.7
			c-1.6-0.2-2.6-0.8-2.6-2.1c0-1.6,1.8-2.4,3.5-2.4c2.7,0,4.3,0.8,4.5,3.1h4c-0.1-3.5-2.9-5.7-8.1-5.7c-4.1,0-7.9,1.6-7.9,5.6
			c0,2.3,1.5,4.3,6.2,4.9l3.7,0.5c2,0.3,2.9,0.8,2.9,2.1c0,1.3-1.2,2.7-4.5,2.7c-3.1,0-4.7-1.3-4.9-3.3L279.3,292.4z"/>
		<polygon class="st0" points="300.2,280.4 300.2,297.8 303.8,297.8 303.8,282.9 303.8,282.9 310.9,297.8 315.7,297.8 322.7,282.9 
			322.7,282.9 322.7,297.8 326.7,297.8 326.7,280.4 320.1,280.4 313.5,294.6 306.8,280.4 		"/>
		<path class="st0" d="M330.1,292.4c0,3.7,3.2,5.9,8.3,5.9c6,0,9.1-2.1,9.1-5.7c0-1.8-0.9-4.2-5.1-4.8l-5.1-0.7
			c-1.6-0.2-2.6-0.8-2.6-2.1c0-1.6,1.8-2.4,3.5-2.4c2.7,0,4.3,0.8,4.5,3.1h4c-0.1-3.5-2.9-5.7-8.1-5.7c-4.1,0-7.9,1.6-7.9,5.6
			c0,2.3,1.5,4.3,6.2,4.9l3.7,0.5c2,0.3,2.9,0.8,2.9,2.1s-1.2,2.7-4.5,2.7c-3.1,0-4.7-1.3-4.9-3.3L330.1,292.4z"/>
		<path class="st0" d="M362.9,291.5c0-2.1,1.8-3.8,3.9-3.7c2.1,0,3.8,1.7,3.8,3.8s-1.7,3.8-3.9,3.8c-1.1,0.1-2.1-0.3-2.8-1.1
			C363.2,293.5,362.8,292.5,362.9,291.5L362.9,291.5z M374.4,288.7c0-0.8,0-2.3,0.1-3H371l-0.1,1.7c-1.3-1.4-3.2-2.2-5.2-2.1
			c-3.9,0-6.7,2.4-6.7,6.3c0,3.2,2.4,6.1,6.8,6.1c1.9,0,3.7-0.7,4.9-2.1h0.1v1.6c0,2.2-1.5,3.3-4.2,3.3c-1.7,0-3.1-0.6-3.1-1.8h-3.7
			c0.1,3,3.1,4,6.9,4c5,0,7.9-1.6,7.9-5.5L374.4,288.7L374.4,288.7z"/>
		<path class="st0" d="M378.1,297.8h3.7v-4.9c0-3.3,1.6-4.6,4.6-4.6c0.4,0,0.7,0,1,0c0.3,0,0.5,0,0.8,0.1v-2.8
			c-0.8-0.2-1.6-0.2-2.4-0.2c-1.8-0.2-3.4,0.8-4.1,2.5h-0.1c0-0.7,0-1.5-0.1-2.2H378c0,0.8,0.1,1.9,0.1,3L378.1,297.8L378.1,297.8z"
			/>
		<path class="st0" d="M397.4,287.6c2.8,0,4.1,1.8,4.1,4.2s-1.3,4.2-4.1,4.2c-2.8,0-4.1-1.8-4.1-4.2S394.6,287.6,397.4,287.6z
			 M397.4,285.3c-6.3,0-8,3.2-8,6.5s1.8,6.5,8,6.5c6.3,0,8-3.2,8-6.5S403.7,285.3,397.4,285.3z"/>
		<path class="st0" d="M422.8,285.7H419v5.8c0,2.9-1.9,4.3-3.8,4.3c-1.8,0-3.2-0.7-3.2-3.7v-6.4h-3.7v7.5c0,3.9,3.4,5.1,5.6,5.1
			c2,0.1,4-0.8,5.2-2.5h0c0,0.7,0.1,1.3,0.1,2h3.6c0-0.8-0.1-1.8-0.1-2.9L422.8,285.7L422.8,285.7z"/>
		<path class="st0" d="M426.3,302.5h3.7v-6.3h0c1.2,1.5,3.1,2.3,5,2.1c2.4,0,6.6-1.2,6.6-6.6c0-3.4-2.2-6.4-6.8-6.4
			c-2,0-4,0.6-5,2.1h-0.1c0-0.6,0-1.1-0.1-1.7h-3.6c0.1,0.7,0.1,1.9,0.1,2.8L426.3,302.5L426.3,302.5z M430,291.8
			c0.2-2.1,2-3.7,4.1-3.5s3.8,1.9,3.7,4c-0.1,2.1-1.8,3.8-3.9,3.8c-1.1,0-2.1-0.5-2.9-1.3C430.3,293.9,429.9,292.9,430,291.8z"/>
	</g>
	<path class="st1" d="M167.7,296h447.9c2.7,0,4.8,2.2,4.8,4.8l0,0c0,2.7-2.2,4.8-4.8,4.8H167.7c-2.7,0-4.8-2.2-4.8-4.8l0,0
		C162.9,298.2,165.1,296,167.7,296z"/>
	<g transform="translate(58.145)">
		<path class="st0" d="M347.6,255.3l5.8-23.1l3.2-11.9h15.6l-17.6,58.8c0,0.1-12.4,0-12.5,0l-6.7-19.4c-2.5,6.4-4.7,12.9-6.9,19.4
			h-12.2l-18.1-58.8h15.8c3.3,11.2,6.1,22.7,9.3,34l12.2-35.7L347.6,255.3z M163,218.8l26.5,60.5h-16.4c-3.3-8.7-6.9-18-9.8-26.9
			l-0.3,0.2c-3,9-6.4,17.8-9.9,26.6l-0.2,0.2h-16.1L163,218.8z M485.3,234.7c0-0.1-11.6,0-11.7,0v-14.3h38.9v14.3h-11.4v44.6h-15.9
			V234.7z"/>
		<polygon class="st0" points="275.4,279.2 242.7,279.2 242.7,220.4 258.3,220.4 258.3,265.6 275.4,265.6 		"/>
		<path class="st0" d="M516.5,220.4v58.9c0.1,0.1,15.7,0,15.7,0l-0.1-23.2h14.4v23.2H562v-58.9h-15.4v22.1h-14.7
			c-0.1,0,0.1-22,0-22.1H516.5z"/>
		<path class="st0" d="M234.4,257c0.2,8.4-3.2,16.5-10.6,20.5c-7.2,4-17.5,3.4-24.8-0.1c-7.5-3.7-11-11.5-11-20v-37l15.5,0l0,37.5
			c0.2,3.5,1.3,6.5,4.2,8c2.1,0.9,4.5,0.8,6.7-0.1c3.3-1.2,4.1-4.4,4.4-7.7v-37.7h15.6L234.4,257z"/>
		<path class="st0" d="M421.6,257.1c0.2,8.4-3.2,16.5-10.7,20.5c-7.1,4-17.5,3.4-24.7-0.1c-7.5-3.7-11.4-11.6-11-20v-37h15.5V258
			c0.3,3.5,1.3,6.5,4.3,8c2.1,0.9,4.5,0.8,6.7-0.1c3.3-1.2,4.1-4.4,4.4-7.7v-37.7h15.5L421.6,257.1z"/>
		<path class="st0" d="M445.1,257.8c0.1,0.1-0.2,21.4-0.1,21.5c0,0-14.8,0.2-15,0v-58.9l23.9,0.2c7.1,0.2,13.8,4.1,16.3,11.1
			c2.3,6.4,1.7,14.8-3.1,19.8c-2,2.2-4.3,3-6.7,3.8l17.8,24.1l-18.3,0L445.1,257.8z M456.4,240.4c0.1-1.6-0.4-3.2-1.4-4.4
			c-2.4-2.9-6.3-2.3-10-2.3v6.8l0,0l0.1,6.8c3.7-0.1,7.6,0.6,10-2.3C456,243.5,456.5,242,456.4,240.4L456.4,240.4z"/>
		<path class="st0" d="M104.9,220.4c10.5,0,21.7,0,25.4,0.6c5,0.9,9.5,3.9,12.3,8.2c4,5.9,4.1,15.2,0.8,21.5
			c-4.6,9-14.5,9.6-23.8,9.5v19h-14.7L104.9,220.4z"/>
		<path class="st2" d="M119.6,246.9v-13.2l4.6,0c1.8,0,3.5,0.7,4.7,1.9c1.3,1.3,1.9,3,1.9,4.8c-0.2,4.3-2.9,6.5-6.8,6.5H119.6z"/>
	</g>
	<polygon class="st0" points="20.5,220 20.5,305.7 146.3,305.7 146.3,220 	"/>
	<polygon class="st2" points="21.9,221.4 144.9,221.4 144.9,302.9 21.9,302.9 	"/>
	<polygon class="st1" points="26,225.5 100.7,225.5 26,300.2 	"/>
	<polygon class="st3" points="66.1,264.1 104.9,225.5 140.8,225.5 66.1,300.2 	"/>
</g>
</svg>
